<svg xmlns="http://www.w3.org/2000/svg" width="400" height="369.274" xml:space="preserve"><defs><linearGradient id="a" gradientUnits="userSpaceOnUse" x1="109.583" y1="131.259" x2="109.335" y2="137.758"><stop offset="0" style="stop-color:#d92a26"/><stop offset="1" style="stop-color:#8a2929"/></linearGradient></defs><path d="M52.028 268.316C27.618 287.924 6.284 305.323.892 310.488c-.186.15-.273.353-.188.445.08.088.278.054.46-.08.034-.025 24.215-17.771 52.848-38.795a184.96 184.96 0 0 0 11.193 18c-8.63 7.413-15.176 13.285-17.37 15.828a.297.297 0 0 0 .36.473c.016-.01 7.836-5.469 19.127-13.357a186.58 186.58 0 0 0 9.978 12.455C45.591 330.833 7.2 361.843.182 368.8c-.163.134-.23.322-.144.417.08.09.263.072.422-.047.042-.03 44.846-32.635 81.071-59.035 64.054 68.455 170.87 78.287 246.671 19.912 73.13-56.318 92.257-156.766 48.774-235.088 1.311-2.14 2.594-4.304 3.85-6.488a207.066 207.066 0 0 0 8.33-15.789c2.412-5.065 7.39-16.215 6.72-22.85-.117-1.16-.56-2.554-1.323-3.45-.92-1.079-1.972-1.767-3.33-2.174-9.245-3.061-31.117 2.269-40.727 4.885-2.447.666-4.86 1.354-7.243 2.07-64.614-62.056-166.621-69.227-239.756-12.905-71.576 55.12-91.421 152.51-51.469 230.058z"/><path style="fill:#fff" d="M229.188 524.817a6738.856 6738.856 0 0 1 21.056-16.757c.83-.695 1.847-1.171 2.875-1.462 1.48-.42 2.828-.399 3.116-.023.289.377-.032 1.693-.816 3.019-.414.7-1.121 1.673-2.107 2.364-.813.624-9.96 7.302-21.508 15.72 37.318 39.293 99.374 41.957 139.942 5.514 34.744-31.209 42.653-81.154 22.173-120.797-3.512 5.172-7.406 10.064-11.87 14.592-5.801 5.883-11.406 10.349-18.086 15.435 5.833 21.662-.446 45.744-18.276 61.761-14.995 13.47-34.787 18.208-53.142 14.547l-.508.386a1.379 1.379 0 0 1-1.553.096 1.406 1.406 0 0 1-.7-1.099c-11.532-2.855-22.36-9.077-30.897-18.581a62.632 62.632 0 0 1-3.282-3.972c-8.37 5.89-21.595 15.143-31.956 22.384a101.407 101.407 0 0 0 5.539 6.873zM214.726 503.378a7899.987 7899.987 0 0 1 31.651-25.209 61.518 61.518 0 0 1-3.224-20.606 1.417 1.417 0 0 1-.633-.459 1.409 1.409 0 0 1 .23-1.979l.509-.4c.946-15.554 7.77-30.759 20.277-41.995 20.277-18.215 49.327-20.462 71.732-7.568a275.214 275.214 0 0 1 9.92-7.39c4.026-2.876 7.584-5.085 11.947-7.42 4.845-2.584 9.729-4.677 14.81-6.463-37.684-34.112-95.824-34.882-134.467-.169-34.412 30.911-42.5 80.201-22.752 119.658z" transform="matrix(1.73833 0 0 1.73833 -313.67 -612.795)"/><path style="fill:#fff4e5" d="M247.931 482.274a75596.094 75596.094 0 0 1-31.972 23.486 100.14 100.14 0 0 0 6.169 10.062c9.841-8.328 22.402-18.613 30.228-24.985a60.884 60.884 0 0 1-4.425-8.563z" transform="matrix(1.73833 0 0 1.73833 -313.67 -612.795)"/><path d="m287.402 49.486 3.287-8.495-33.665-13.024-3.287 8.495 10.97 4.245-11.298 29.199 11.534 4.464 11.299-29.202zM230.967 47.853l.055-8.749-16.547-.106.042-6.485 17.573.113.055-8.871-29.939-.19-.257 40.418 30.897.197.056-8.87-18.53-.117.048-7.446zM161.573 76.661l-3.842-9.183a373.644 373.644 0 0 0-3.743-8.657 232.68 232.68 0 0 0-3.666-7.81l.252-.107a123.94 123.94 0 0 0 6.347 5.486 188.223 188.223 0 0 0 6.41 4.974l12.442 9.355 11.979-5.011-15.6-37.287-10.4 4.35 3.702 8.852a159.535 159.535 0 0 0 3.576 7.97 114.182 114.182 0 0 0 3.857 7.317l-.19.078a135.594 135.594 0 0 0-6.014-5.448 86.078 86.078 0 0 0-6.136-4.81l-11.544-8.627-13.429 5.618 15.6 37.288 10.399-4.348z"/><path style="fill-rule:evenodd" d="m251.489 406.194 5.119 2.373 5.162-5.671-22.516-9.807-6.354 6.979 12.005 21.353 4.951-5.438-2.975-4.729 4.608-5.06zm-7.362 1.276-2.32-3.654a46.453 46.453 0 0 0-1.283-1.965 67.608 67.608 0 0 1-1.32-2l.053-.058c.663.331 1.381.692 2.153 1.083s1.478.74 2.116 1.048l3.909 1.911-3.308 3.635zM215.07 434.553l21.873 7.886 5.869-16.277-4.898-1.766-3.455 9.584-16.976-6.12zM235.724 469.184l-.132-7.035-7.9.149c-.001-.218.005-.472.02-.764.015-.291.02-.615.017-.97-.031-1.801-.258-3.449-.679-4.941-.422-1.493-1.055-2.767-1.899-3.824a6.66 6.66 0 0 0-2.524-1.884c-.986-.422-2.07-.622-3.252-.602-1.202.036-2.279.334-3.232.896a6.657 6.657 0 0 0-2.299 2.235c-.603.932-1.046 2.097-1.331 3.496-.284 1.398-.408 3.05-.372 4.956.042 1.998.126 3.712.252 5.143.126 1.43.269 2.622.429 3.575l22.902-.43zm-18.727-6.685a7.166 7.166 0 0 1-.11-.791 17.13 17.13 0 0 1-.067-1.293c-.013-1.355.236-2.369.746-3.041.51-.671 1.203-1.014 2.079-1.028 1.011-.004 1.81.384 2.396 1.166.586.782.897 1.868.934 3.26.006.37.005.684-.004.94-.009.256-.021.482-.035.675l-5.939.112zM395.539 463.063c.319-.796.583-1.898.792-3.304.209-1.406.279-2.921.209-4.543-.153-2.575-.609-4.678-1.368-6.309-.758-1.63-1.716-2.819-2.873-3.566-1.157-.747-2.41-1.083-3.759-1.007-1.613.074-2.961.698-4.044 1.872-1.084 1.173-1.947 2.962-2.59 5.367-.435 1.688-.816 2.922-1.144 3.703-.328.78-.771 1.18-1.328 1.199-.524.024-.956-.241-1.295-.794-.339-.553-.54-1.372-.604-2.458-.052-1.32.016-2.469.202-3.447.187-.978.386-1.759.598-2.344l-5.071-1.228c-.29.875-.514 1.903-.671 3.086-.157 1.183-.198 2.557-.123 4.122.224 3.363 1.061 5.936 2.509 7.716 1.448 1.78 3.222 2.629 5.319 2.544 1.709-.121 3.094-.88 4.153-2.276 1.059-1.396 1.876-3.247 2.451-5.552.353-1.504.709-2.594 1.067-3.27.358-.676.814-1.022 1.367-1.039.592-.033 1.07.241 1.435.821.365.581.582 1.479.652 2.697a17.37 17.37 0 0 1-.25 3.857c-.223 1.216-.501 2.247-.835 3.09l5.201 1.063zM388.75 493.265c.567-.645 1.183-1.595 1.85-2.851s1.238-2.66 1.714-4.213c.715-2.478.987-4.613.816-6.403-.171-1.79-.677-3.23-1.518-4.321-.841-1.09-1.91-1.825-3.207-2.205-1.545-.468-3.024-.33-4.438.415-1.413.744-2.824 2.143-4.232 4.195-.974 1.446-1.745 2.482-2.314 3.108-.569.626-1.12.855-1.652.687-.502-.153-.82-.546-.956-1.181-.134-.634-.051-1.474.25-2.518.392-1.262.839-2.322 1.342-3.182.502-.859.951-1.53 1.346-2.011l-4.37-2.85c-.565.728-1.12 1.623-1.663 2.686-.543 1.063-1.04 2.344-1.492 3.844-.912 3.245-.981 5.949-.21 8.111.771 2.162 2.159 3.553 4.165 4.174 1.652.456 3.21.203 4.674-.759 1.464-.962 2.852-2.435 4.163-4.416.835-1.3 1.534-2.208 2.098-2.726.563-.518 1.108-.692 1.635-.523.568.167.928.584 1.078 1.253.15.669.055 1.589-.286 2.759a17.272 17.272 0 0 1-1.523 3.553c-.616 1.072-1.223 1.95-1.818 2.634l4.548 2.74zM376.006 500.125l-4.072-2.958-5.595 7.702-3.019-2.193 5.942-8.179-4.128-2.999-10.123 13.935 18.811 13.666 10.448-14.38-4.129-2.999-6.265 8.624-3.465-2.517zM347.358 540.082l5.852-3.906-4.847-7.261.95-.634c.882-.628 1.696-.916 2.441-.862.746.054 1.632.548 2.658 1.482 1.12.995 2.065 1.775 2.833 2.34.768.565 1.333.936 1.693 1.11l6.016-4.016c-.322-.17-.788-.5-1.396-.987a124.597 124.597 0 0 1-2.002-1.643 92.877 92.877 0 0 0-2.098-1.708c-.829-.657-1.665-1.132-2.506-1.427a4.866 4.866 0 0 0-2.623-.167l-.057-.086c.703-.896 1.176-2.006 1.416-3.33.241-1.324-.019-2.609-.779-3.858-.624-.931-1.351-1.622-2.18-2.072-.829-.45-1.754-.676-2.774-.677-1.198.001-2.491.296-3.877.884-1.386.588-2.919 1.447-4.596 2.576a75.033 75.033 0 0 0-3.958 2.828 53.008 53.008 0 0 0-2.885 2.361l12.719 19.053zm-4.511-19.433c.123-.125.335-.305.639-.541.304-.236.731-.538 1.282-.908.99-.653 1.875-.958 2.657-.912.782.045 1.416.428 1.902 1.148.479.732.558 1.513.238 2.342-.32.83-1.037 1.623-2.15 2.38l-1.539 1.027-3.029-4.536zM315.236 549.954l6.871-1.517-1.704-7.716c.213-.044.464-.087.752-.13.289-.043.607-.102.954-.175 1.76-.386 3.33-.933 4.71-1.64 1.38-.708 2.504-1.58 3.374-2.616a6.632 6.632 0 0 0 1.349-2.846c.219-1.05.202-2.152-.051-3.307-.272-1.171-.777-2.168-1.516-2.992a6.642 6.642 0 0 0-2.645-1.813c-1.033-.407-2.262-.612-3.689-.615-1.427-.003-3.071.201-4.932.612-1.951.435-3.615.855-4.992 1.261-1.377.406-2.518.781-3.42 1.126l4.939 22.368zm2.861-19.678c.166-.073.417-.161.753-.263.336-.103.754-.209 1.254-.321 1.327-.28 2.37-.236 3.128.131s1.231.979 1.418 1.835c.204.991-.02 1.851-.67 2.579-.65.728-1.654 1.248-3.012 1.558a17.353 17.353 0 0 1-1.59.281l-1.281-5.8zM302.204 550.817l-5.733-12.946 8.867-10.098-8.003-1.254-2.17 3.431a104.365 104.365 0 0 0-2.147 3.54l-.078-.012a144.93 144.93 0 0 0-.548-2.028 87.856 87.856 0 0 0-.603-2.063l-1.215-3.927-8.042-1.261 5.331 12.464-9.204 10.465 7.964 1.249 2.341-3.509c.425-.659.835-1.283 1.229-1.872.395-.589.761-1.194 1.101-1.813l.078.012c.222.707.442 1.405.662 2.094.22.689.464 1.426.733 2.21l1.316 4.047 8.121 1.271zM271.257 534.083l2.478-4.381-8.286-4.685 1.836-3.248 8.8 4.976 2.511-4.442-14.993-8.477-11.444 20.24 15.472 8.749 2.512-4.441-9.28-5.248 2.108-3.728z" clip-rule="evenodd" transform="matrix(1.73833 0 0 1.73833 -313.67 -612.795)"/><path style="fill:#efd456;fill-opacity:1;fill-rule:evenodd" d="M405.21 380.968a1.18 1.18 0 0 0-.533-.321 7.686 7.686 0 0 0-1.35-.303c-5.003-.617-14.569 1.505-20.514 3.134a141.688 141.688 0 0 0-11.705 3.708c-4.576 1.679-8.344 3.363-12.647 5.651a105.004 105.004 0 0 0-11.639 7.229 290.607 290.607 0 0 0-12.14 9.144l-.01.007c-10.075 7.845-17.924 15.333-26.233 25.029-.27.315-.62.481-1.035.492a79.007 79.007 0 0 0-9.064.725c-17.029 2.286-34.296 8.222-48.548 17.972a65.589 65.589 0 0 1 3.123-.456c3.649-.469 6.776-.536 10.442-.223 3.345.27 6.138.98 9.205 2.34 3.401 1.516 5.915 3.66 7.946 6.78l.542.829-4.505 5.973a131.507 131.507 0 0 0-5.341 7.509c-.318.492-.715 1.472-.309 2.06l5.978 7.762c.4.486 1.459.409 2.062.215a118.141 118.141 0 0 0 7.753-2.898l7.794-3.176.662.73c2.03 2.236 3.296 4.549 4.087 7.463.853 3.21 1.047 6.071.634 9.367-.654 5.423-2.191 10.133-4.39 14.999 5.699-4.931 10.066-9.619 14.582-15.651 5.585-7.447 10.043-15.04 13.811-23.453a90.28 90.28 0 0 0 4.389-11.797c.117-.396.367-.69.739-.87 11.497-5.557 20.741-11.232 30.899-18.969 3.52-2.664 6.46-4.954 9.906-7.714a116.079 116.079 0 0 0 10.242-9.249c6.648-6.758 12.291-14.732 17.03-22.995a127.528 127.528 0 0 0 4.69-8.894c.947-1.978 3.917-8.49 3.608-11.631a1.194 1.194 0 0 0-.161-.518z" clip-rule="evenodd" transform="matrix(1.73833 0 0 1.73833 -313.67 -612.795)"/><g style="fill:#d12a26;fill-opacity:1" clip-rule="evenodd"><path d="M360.882 444.759c-9.861 7.449-18.912 12.992-30.1 18.447a88.787 88.787 0 0 1-4.341 11.552c-3.875 8.625-8.38 16.344-14.128 23.993-4.965 6.633-9.956 11.946-16.03 17.002 14.955 2.172 30.738-1.476 43.656-11.424 18.711-14.411 26.178-38.009 20.943-59.57zM291.322 514.811c4.742-9.103 9.222-22.706 2.368-31.292l-5.931 2.417a104.303 104.303 0 0 1-7.951 2.971c-1.727.564-3.906.399-5.126-1.123l-6.092-7.915c-1.134-1.553-.737-3.71.258-5.224a134.268 134.268 0 0 1 5.456-7.671l3.287-4.357c-1.681-2.251-3.606-3.794-6.17-4.943-2.767-1.219-5.284-1.858-8.297-2.107-3.461-.286-6.413-.222-9.858.211a63.66 63.66 0 0 0-6.533 1.128 57.814 57.814 0 0 0 2.625 18.902 7850.139 7850.139 0 0 1 11.726-9.272c.841-.702 1.865-1.189 2.899-1.494 1.487-.438 2.835-.438 3.118-.068.283.37-.057 1.682-.861 3.01-.424.7-1.146 1.678-2.143 2.378-.568.437-5.717 4.229-13.204 9.735a57.533 57.533 0 0 0 4.258 8.467c2.834-2.302 4.572-3.705 4.594-3.722.97-.818 2.177-1.354 3.409-1.663 1.772-.443 3.406-.348 3.775.134.369.482.049 2.097-.833 3.7-.465.846-1.271 2.016-2.431 2.82-.458.352-2.333 1.688-5.142 3.669l.216.281a57.66 57.66 0 0 0 32.583 21.028zM247.086 451.891c14.949-10.503 32.919-16.829 50.88-19.22a81.457 81.457 0 0 1 8.741-.731c8.131-9.423 15.803-16.758 25.522-24.389-19.508-10.571-44.232-9.38-62.945 5.031-12.923 9.953-20.482 24.289-22.198 39.309z" style="fill:#d12a26;fill-opacity:1;fill-rule:evenodd" transform="matrix(1.73833 0 0 1.73833 -313.67 -612.795)"/></g></svg>